<svg xmlns="http://www.w3.org/2000/svg" width="13.637" height="11.364" viewBox="0 0 13.637 11.364">
  <g id="Arrow_-_Right" data-name="Arrow - Right" transform="translate(0 11.364) rotate(-90)">
    <path id="Arrow_-_Right-2" data-name="Arrow - Right" d="M5.51,13.613h0l-.009,0-.008,0h0l-.01,0h0a.63.63,0,0,1-.238-.148h0l-5.053-5a.613.613,0,0,1,0-.876A.636.636,0,0,1,1,7.519l.07.06,3.978,3.936V.62A.63.63,0,0,1,6.305.536L6.311.62v10.9l3.978-3.936a.636.636,0,0,1,.89,0,.613.613,0,0,1,.063.807l-.061.07-5.052,5a.633.633,0,0,1-.446.182A.639.639,0,0,1,5.51,13.613Z" transform="translate(0)" fill="#f1d26d"/>
  </g>
</svg>
