<svg id="Group_79" data-name="Group 79" xmlns="http://www.w3.org/2000/svg" width="1920" height="2944" viewBox="0 0 1920 2944">
  <rect id="Rectangle_54" data-name="Rectangle 54" width="1920" height="2944" fill="#282c34"/>
  <g id="Group_78" data-name="Group 78">
    <line id="Line_52" data-name="Line 52" x1="21" y2="21" transform="translate(1126.5 870.5)" fill="none" stroke="#f1d26d" stroke-width="1"/>
    <line id="Line_58" data-name="Line 58" x2="90" transform="translate(1397.5 1651.5)" fill="none" stroke="#f1d26d" stroke-width="1"/>
    <g id="Group_77" data-name="Group 77">
      <circle id="Ellipse_95" data-name="Ellipse 95" cx="3" cy="3" r="3" transform="translate(127 1297)" fill="#f1d26d"/>
      <line id="Line_53" data-name="Line 53" x2="372" y2="372" transform="translate(129.5 1299.5)" fill="none" stroke="#f1d26d" stroke-width="1"/>
      <line id="Line_54" data-name="Line 54" x2="506" transform="translate(501.5 1671.5)" fill="none" stroke="#f1d26d" stroke-width="1"/>
      <line id="Line_55" data-name="Line 55" x2="155" y2="155" transform="translate(1007.5 1671.5)" fill="none" stroke="#f1d26d" stroke-width="1"/>
      <line id="Line_56" data-name="Line 56" y2="85" transform="translate(1162.5 1826.5)" fill="none" stroke="#f1d26d" stroke-width="1"/>
      <circle id="Ellipse_96" data-name="Ellipse 96" cx="3" cy="3" r="3" transform="translate(1573 1737)" fill="#f1d26d"/>
      <line id="Line_59" data-name="Line 59" x2="88" y2="88" transform="translate(1487.5 1651.5)" fill="none" stroke="#f1d26d" stroke-width="1"/>
      <circle id="Ellipse_101" data-name="Ellipse 101" cx="3" cy="3" r="3" transform="translate(1175 1444)" fill="#f1d26d"/>
      <line id="Line_57" data-name="Line 57" x2="205" y2="205" transform="translate(1192.5 1446.5)" fill="none" stroke="#f1d26d" stroke-width="1"/>
      <line id="Line_51" data-name="Line 51" x1="350" y2="350" transform="translate(812.5 1040.5)" fill="none" stroke="#f1d26d" stroke-width="1"/>
      <circle id="Ellipse_94" data-name="Ellipse 94" cx="3" cy="3" r="3" transform="translate(810 1388)" fill="#f1d26d"/>
      <g id="Group_76" data-name="Group 76">
        <circle id="Ellipse_93" data-name="Ellipse 93" cx="3" cy="3" r="3" transform="translate(495 800)" fill="#f1d26d"/>
        <line id="Line_49" data-name="Line 49" x1="542" transform="translate(585.5 891.5)" fill="none" stroke="#f1d26d" stroke-width="1"/>
        <line id="Line_50" data-name="Line 50" x1="89" y1="89" transform="translate(497.5 802.5)" fill="none" stroke="#f1d26d" stroke-width="1"/>
        <g id="Group_75" data-name="Group 75">
          <path id="Path_257" data-name="Path 257" d="M0,711V0" transform="translate(1162.5 329.5)" fill="none" stroke="#f1d26d" stroke-width="1"/>
          <line id="Line_48" data-name="Line 48" y1="541" transform="translate(1147.5 329.5)" fill="none" stroke="#f1d26d" stroke-width="1"/>
          <line id="Line_45" data-name="Line 45" y1="1118" transform="translate(1177.5 329.5)" fill="none" stroke="#f1d26d" stroke-width="1"/>
          <line id="Line_47" data-name="Line 47" y1="1117" transform="translate(1192.5 329.5)" fill="none" stroke="#f1d26d" stroke-width="1"/>
          <g id="Group_74" data-name="Group 74">
            <line id="Line_66" data-name="Line 66" y1="329" transform="translate(1162.5 0.5)" fill="none" stroke="#f1d26d" stroke-width="1"/>
            <line id="Line_67" data-name="Line 67" y1="81" transform="translate(1192.5 248.5)" fill="none" stroke="#f1d26d" stroke-width="1"/>
            <path id="Path_258" data-name="Path 258" d="M0,151.7V0" transform="translate(1177.5 177.796)" fill="none" stroke="#f1d26d" stroke-width="1"/>
            <line id="Line_65" data-name="Line 65" y2="82" transform="translate(1147.5 247.5)" fill="none" stroke="#f1d26d" stroke-width="1"/>
            <circle id="Ellipse_92" data-name="Ellipse 92" cx="3" cy="3" r="3" transform="translate(937 192)" fill="#f1d26d"/>
            <circle id="Ellipse_90" data-name="Ellipse 90" cx="3.5" cy="3.5" r="3.5" transform="translate(1174 176)" fill="#f1d26d"/>
            <circle id="Ellipse_91" data-name="Ellipse 91" cx="3" cy="3" r="3" transform="translate(1314 214)" fill="#f1d26d"/>
            <line id="Line_43" data-name="Line 43" x1="53.5" y1="53.71" transform="translate(1094 194.79)" fill="none" stroke="#f1d26d" stroke-width="1"/>
            <line id="Line_46" data-name="Line 46" y1="53.71" x2="53.5" transform="translate(1192.5 194.79)" fill="none" stroke="#f1d26d" stroke-width="1"/>
            <line id="Line_62" data-name="Line 62" x1="22" y1="21.71" transform="translate(1294.5 194.79)" fill="none" stroke="#f1d26d" stroke-width="1"/>
            <line id="Line_60" data-name="Line 60" x1="155" transform="translate(939.5 194.5)" fill="none" stroke="#f1d26d" stroke-width="1"/>
            <line id="Line_61" data-name="Line 61" x2="48.5" transform="translate(1246 194.79)" fill="none" stroke="#f1d26d" stroke-width="1"/>
          </g>
        </g>
      </g>
      <line id="Line_63" data-name="Line 63" x1="62" y2="62" transform="translate(1100.5 1911.5)" fill="none" stroke="#f1d26d" stroke-width="1"/>
      <line id="Line_64" data-name="Line 64" x2="143" y2="143" transform="translate(1162.5 1911.5)" fill="none" stroke="#f1d26d" stroke-width="1"/>
      <circle id="Ellipse_102" data-name="Ellipse 102" cx="3" cy="3" r="3" transform="translate(1303 2052)" fill="#f1d26d"/>
      <circle id="Ellipse_98" data-name="Ellipse 98" cx="3" cy="3" r="3" transform="translate(1098 1971)" fill="#f1d26d"/>
    </g>
  </g>
</svg>
