<svg id="Group_68" data-name="Group 68" xmlns="http://www.w3.org/2000/svg" width="45" height="45" viewBox="0 0 45 45">
  <g id="Ellipse_24" data-name="Ellipse 24" fill="none" stroke="#f1d26d" stroke-width="2">
    <circle cx="22.5" cy="22.5" r="22.5" stroke="none"/>
    <circle cx="22.5" cy="22.5" r="21.5" fill="none"/>
  </g>
  <g id="Activity" transform="translate(14 14)">
    <path id="Activity-2" data-name="Activity" d="M4.636,17A4.456,4.456,0,0,1,0,12.366l0-.2V5.531A4.5,4.5,0,0,1,4.443.695l.193,0h5.986a.616.616,0,0,1,.084,1.226l-.084.005H4.636a3.25,3.25,0,0,0-3.4,3.417l0,.191v6.637a3.249,3.249,0,0,0,3.217,3.6l.184,0h7.087a3.245,3.245,0,0,0,3.4-3.41l0-.19V6.388A.618.618,0,0,1,16.354,6.3l.006.083v5.78A4.492,4.492,0,0,1,11.916,17l-.193,0ZM4,11.421l-.077-.05a.615.615,0,0,1-.163-.788l.05-.076L6.272,7.313a.619.619,0,0,1,.795-.16l.077.051L9.466,9.023,11.5,6.409a.617.617,0,0,1,1.027.679l-.051.076-2.412,3.1a.62.62,0,0,1-.794.158l-.076-.051L6.871,8.557l-2.085,2.7a.619.619,0,0,1-.79.163Zm8.6-9.227a2.2,2.2,0,1,1,2.2,2.194A2.2,2.2,0,0,1,12.6,2.194Zm1.235,0a.965.965,0,1,0,.965-.962A.965.965,0,0,0,13.834,2.194Z" fill="#f1d26d"/>
  </g>
</svg>
