<svg xmlns="http://www.w3.org/2000/svg" width="45" height="45" viewBox="0 0 45 45">
  <g id="Group_66" data-name="Group 66" transform="translate(-0.255 -0.333)">
    <g id="Ellipse_23" data-name="Ellipse 23" transform="translate(0.255 0.333)" fill="none" stroke="#f1d26d" stroke-width="2">
      <circle cx="22.5" cy="22.5" r="22.5" stroke="none"/>
      <circle cx="22.5" cy="22.5" r="21.5" fill="none"/>
    </g>
    <g id="Setting" transform="translate(14.255 14.333)">
      <path id="Setting-2" data-name="Setting" d="M7.946,17a2.434,2.434,0,0,1-1.688-.661A2.039,2.039,0,0,1,5.6,14.854l-.008-.125a.864.864,0,0,0-.132-.359,1,1,0,0,0-.615-.441A1.069,1.069,0,0,0,4.59,13.9a1.152,1.152,0,0,0-.55.145l-.159.074a2.511,2.511,0,0,1-1.6.109A2.321,2.321,0,0,1,.872,13.194L.3,12.278l-.076-.135a2.1,2.1,0,0,1,.92-2.8l.1-.055A.937.937,0,0,0,1.683,8.5a.961.961,0,0,0-.537-.84l-.139-.083a2.087,2.087,0,0,1-.684-2.9L.9,3.792a2.4,2.4,0,0,1,2.04-1.1,2.426,2.426,0,0,1,1.139.282l.119.059a1.011,1.011,0,0,0,.381.081A.993.993,0,0,0,5.608,2.16L5.615,2A2.121,2.121,0,0,1,6.288.641,2.445,2.445,0,0,1,7.946,0h1.1a2.451,2.451,0,0,1,1.684.662A2.07,2.07,0,0,1,11.4,2.191l.007.125a.84.84,0,0,0,.129.353,1.016,1.016,0,0,0,.622.438,1.069,1.069,0,0,0,.251.03,1.136,1.136,0,0,0,.551-.146l.147-.07a2.463,2.463,0,0,1,1-.207,2.394,2.394,0,0,1,2.036,1.095l.548.886a.636.636,0,0,1,.039.073l.051.095a2.1,2.1,0,0,1-.791,2.723l-.23.135a.959.959,0,0,0-.3.3.883.883,0,0,0-.1.721.98.98,0,0,0,.5.591l.149.09a2.184,2.184,0,0,1,.92,1.222,2.038,2.038,0,0,1-.243,1.664l-.59.916L16,13.352a2.447,2.447,0,0,1-3.067.66l-.122-.059a1.1,1.1,0,0,0-.389-.085h-.006a1.052,1.052,0,0,0-.717.277.934.934,0,0,0-.3.7L11.391,15a2.3,2.3,0,0,1-2.34,2ZM5.188,12.74A2.314,2.314,0,0,1,6.6,13.75a2.04,2.04,0,0,1,.307.868l.018.3a1,1,0,0,0,1.019.851h1.1a.994.994,0,0,0,1.02-.851l0-.093a2.118,2.118,0,0,1,.685-1.55,2.43,2.43,0,0,1,1.667-.637h.013a2.534,2.534,0,0,1,.937.205l.283.135a1.1,1.1,0,0,0,.415.081,1.021,1.021,0,0,0,.821-.389l.065-.094.577-.894a.9.9,0,0,0,.1-.721.943.943,0,0,0-.375-.516l-.244-.144a2.186,2.186,0,0,1-.95-1.242,2.055,2.055,0,0,1,.237-1.653,2.255,2.255,0,0,1,.709-.712l.143-.084a.917.917,0,0,0,.424-1.2l-.064-.113-.011-.024-.523-.846A1.051,1.051,0,0,0,14.1,3.94a1.024,1.024,0,0,0-.306.046l-.1.037-.093.044a2.5,2.5,0,0,1-1.775.231,2.342,2.342,0,0,1-1.428-1,2.04,2.04,0,0,1-.307-.868l-.011-.214a.924.924,0,0,0-.29-.693,1.068,1.068,0,0,0-.733-.288H7.946a1.05,1.05,0,0,0-.721.278.92.92,0,0,0-.291.562l-.012.259A2.3,2.3,0,0,1,4.575,4.347a2.434,2.434,0,0,1-.956-.207l-.172-.084a1.077,1.077,0,0,0-.506-.126,1.061,1.061,0,0,0-.9.49l-.581.888a.906.906,0,0,0,.279,1.245l.234.138A2.142,2.142,0,0,1,3,8.5a2.168,2.168,0,0,1-1.034,1.81l-.139.082a.908.908,0,0,0-.423,1.2l.05.09.564.9a1.01,1.01,0,0,0,.616.455,1.134,1.134,0,0,0,.287.037,1.018,1.018,0,0,0,.386-.073l.1-.044a2.469,2.469,0,0,1,1.175-.3A2.5,2.5,0,0,1,5.188,12.74ZM5.519,8.5A2.89,2.89,0,0,1,8.5,5.722,2.89,2.89,0,0,1,11.488,8.5,2.891,2.891,0,0,1,8.5,11.279,2.89,2.89,0,0,1,5.519,8.5Zm1.322,0A1.61,1.61,0,0,0,8.5,10.048,1.611,1.611,0,0,0,10.165,8.5,1.61,1.61,0,0,0,8.5,6.953,1.609,1.609,0,0,0,6.841,8.5Z" fill="#f1d26d"/>
    </g>
  </g>
</svg>
