<svg xmlns="http://www.w3.org/2000/svg" width="251.411" height="171.105" viewBox="0 0 251.411 171.105">
  <g id="Group_82" data-name="Group 82" transform="translate(-14318.082 -343.5)">
    <g id="Group_81" data-name="Group 81" transform="translate(13219.958 75.542)">
      <g id="Group_61" data-name="Group 61" transform="translate(1067.709 267.958)">
        <g id="Group_60" data-name="Group 60" transform="translate(30.415)">
          <g id="undraw_miro_qvwm">
            <circle id="Ellipse_45" data-name="Ellipse 45" cx="8.123" cy="8.123" r="8.123" transform="translate(231.912 96.091)" fill="#2f2e41"/>
            <path id="Path_146" data-name="Path 146" d="M453.884,123.513H294.826a2.177,2.177,0,0,0-2.285,2.044v96.416a2.176,2.176,0,0,0,2.285,2.044H453.884a2.4,2.4,0,0,0,1.737-.717.49.49,0,0,0,.05-.056,1.882,1.882,0,0,0,.328-.495,1.813,1.813,0,0,0,.173-.776V125.557a2.177,2.177,0,0,0-2.288-2.044Zm1.635,98.46a1.341,1.341,0,0,1-.27.8,1.641,1.641,0,0,1-.618.5,1.777,1.777,0,0,1-.747.162H294.826a1.556,1.556,0,0,1-1.633-1.46V125.557a1.556,1.556,0,0,1,1.633-1.46H453.884a1.556,1.556,0,0,1,1.635,1.461Z" transform="translate(-247.402 -123.513)" fill="#f1d26d"/>
            <circle id="Ellipse_46" data-name="Ellipse 46" cx="1.96" cy="1.96" r="1.96" transform="translate(49.058 2.94)" fill="#e6e6e6"/>
            <circle id="Ellipse_47" data-name="Ellipse 47" cx="1.96" cy="1.96" r="1.96" transform="translate(54.692 2.94)" fill="#e6e6e6"/>
            <circle id="Ellipse_48" data-name="Ellipse 48" cx="1.96" cy="1.96" r="1.96" transform="translate(60.326 2.94)" fill="#e6e6e6"/>
            <path id="Path_161" data-name="Path 161" d="M991.319,665.635h-12.58c0,.362-12.966.655-12.966.655a3.37,3.37,0,0,0-.553.524,3.252,3.252,0,0,0-.76,2.1v.524a3.277,3.277,0,0,0,3.276,3.276h23.583a3.278,3.278,0,0,0,3.276-3.276v-.524A3.28,3.28,0,0,0,991.319,665.635Z" transform="translate(-743.252 -523.578)" fill="#e6e6e6"/>
            <rect id="Rectangle_27" data-name="Rectangle 27" width="3.407" height="22.011" transform="translate(234.703 149.002)" fill="#e6e6e6"/>
            <path id="Path_162" data-name="Path 162" d="M1001.019,766.426c0,.368-5.162.142-11.53.142s-11.53.226-11.53-.142,5.162-3.287,11.53-3.287S1001.019,766.057,1001.019,766.426Z" transform="translate(-753.214 -595.532)" fill="#e6e6e6"/>
            <path id="Path_163" data-name="Path 163" d="M823.318,606.223h-3.213l-1.528-12.391h4.742Z" transform="translate(-604.078 -438.225)" fill="#ffb8b8"/>
            <path id="Path_164" data-name="Path 164" d="M804.667,637.617h6.2v3.9h-10.1A3.9,3.9,0,0,1,804.667,637.617Z" transform="translate(-590.934 -470.536)" fill="#2f2e41"/>
            <path id="Path_165" data-name="Path 165" d="M808.9,596.984l-3.065-.962,2.251-12.28,4.524,1.419Z" transform="translate(-594.675 -430.779)" fill="#ffb8b8"/>
            <path id="Path_166" data-name="Path 166" d="M3.9,0h6.2V3.9H0A3.9,3.9,0,0,1,3.9,0Z" transform="translate(205.523 162.513) rotate(17.423)" fill="#2f2e41"/>
            <path id="Path_167" data-name="Path 167" d="M956.023,644.612a9.927,9.927,0,0,0-.4-1.84l-.6-.755-1.562-1.96-.068,0c-.115.005-.595.031-1.336.089h-.008c-.459.037-1.019.084-1.656.144-.168.018-.343.034-.524.052v2.736h3.276a.656.656,0,0,1,.65.571c0,.029.005.055.005.084a.655.655,0,0,1-.655.655H934.122a7.433,7.433,0,0,0-.7.524,3.9,3.9,0,0,0-1.376,2.06c-1.111,4.884-3.137,13.993-3.734,16.668a1.189,1.189,0,0,0,.354,1.122,1.164,1.164,0,0,0,.385.238l2.364.886a1.256,1.256,0,0,0,.3.071l.037,0a.684.684,0,0,0,.073,0,1.188,1.188,0,0,0,1.1-.76l1.866-4.895,2.875-7.547,1.137-2.985c1.318.309,12.376,2.757,16.079-1.187a4.212,4.212,0,0,0,.849-1.339A5.45,5.45,0,0,0,956.023,644.612Z" transform="translate(-716.558 -504.703)" fill="#2f2e41"/>
            <path id="Path_168" data-name="Path 168" d="M968.826,650.491c-.058-.233-.123-.474-.2-.718l-2.162-2.715-.068,0c-.136.008-.784.042-1.777.123-1.127.094-2.7.246-4.47.485-.052.005-.107.013-.16.021-.173.024-.349.047-.524.073v.485h3.275a.656.656,0,0,1,.65.571c0,.029.005.055.005.084a.655.655,0,0,1-.655.655H951.164c-.506.165-.993.338-1.459.524-2.448.97-4.279,2.24-4.654,3.894-.126.556-.265,1.166-.411,1.816-.545,2.416-1.208,5.374-1.808,8.063v0c-.123.556-.246,1.1-.364,1.619-.5,2.254-.925,4.164-1.15,5.167l-.016.084v.005a1.223,1.223,0,0,0,.073.6l0,0v0a1.16,1.16,0,0,0,.341.469,1.2,1.2,0,0,0,.338.2l2.364.886a1.2,1.2,0,0,0,.411.076,1.162,1.162,0,0,0,.563-.144,1.179,1.179,0,0,0,.54-.616l5.089-13.354.789-2.073c1.318.309,12.376,2.754,16.079-1.187a4.426,4.426,0,0,0,1.174-2.9A7.778,7.778,0,0,0,968.826,650.491Z" transform="translate(-726.154 -509.869)" fill="#2f2e41"/>
            <path id="Path_169" data-name="Path 169" d="M1008.37,565.912c-.042-.05-.086-.1-.134-.147a6.413,6.413,0,0,0-5.495-1.936,20.794,20.794,0,0,0-2.6.511,6.547,6.547,0,0,0-2.93,1.643,6.4,6.4,0,0,0-1.942,4.769c.01.359.013.726.008,1.1,0,.173,0,.349-.005.524h2.584a1.4,1.4,0,0,1,.333.039,1.444,1.444,0,0,1,1.108,1.4v12.19c.176.05.351.1.524.152.055.018.107.034.16.05l.178.055q.8.248,1.559.524h.854a.656.656,0,0,1,.65.571c.178.071.351.142.521.212.605.252,1.179.5,1.706.747.71.325,1.342.634,1.871.9a1.2,1.2,0,0,0,.537.131,1.154,1.154,0,0,0,.681-.225,1.445,1.445,0,0,0,.118-.1,1.18,1.18,0,0,0,.359-1.043,33.573,33.573,0,0,1-.236-6.21c.073-1.743.231-3.53.435-5.257.11-.935.233-1.853.362-2.736.123-.844.254-1.653.383-2.419A6.448,6.448,0,0,0,1008.37,565.912Z" transform="translate(-765.989 -448.407)" fill="#f1d26d"/>
            <path id="Path_170" data-name="Path 170" d="M987.408,572.059a3.094,3.094,0,0,0-.414-.144,3.013,3.013,0,0,0-3.548,1.711l-1.8,4.156-.225.524h6.218a1.39,1.39,0,0,1,.333.039l.21-.485.8-1.839A3.016,3.016,0,0,0,987.408,572.059Z" transform="translate(-755.767 -454.339)" fill="#f1d26d"/>
            <circle id="Ellipse_51" data-name="Ellipse 51" cx="6.436" cy="6.436" r="6.436" transform="translate(230.795 100.504)" fill="#ffb8b8"/>
            <path id="Path_171" data-name="Path 171" d="M1020.93,601.875l-3.674.1-.267,2.581-.06.6-5.754,2.584-.524.236v4.594l.524-.149,1.656-.472h.008l7.3-2.078.084-.024a2.851,2.851,0,0,0,2.06-2.712l.018-3.048.016-2.246Z" transform="translate(-777.338 -476.498)" fill="#ffb8b8"/>
            <path id="Path_172" data-name="Path 172" d="M1037.48,574.53a3.014,3.014,0,0,0-6.016.37l.4,6.541a1.176,1.176,0,0,0,.48.875,1.162,1.162,0,0,0,.77.228l2.809-.173.852-.052a1.149,1.149,0,0,0,.812-.4.809.809,0,0,0,.063-.079,1.172,1.172,0,0,0,.231-.776Z" transform="translate(-792.693 -454.258)" fill="#f1d26d"/>
            <path id="Path_173" data-name="Path 173" d="M936.24,609.01H935.9v-.034c-.173.024-.349.047-.524.073v.485H937.8Q937.037,609.259,936.24,609.01Zm0,0H935.9v-.034c-.173.024-.349.047-.524.073v.485H937.8Q937.037,609.259,936.24,609.01Zm2.413,0H935.9V596.563a1.968,1.968,0,0,0-1.423-1.887,1.847,1.847,0,0,0-.542-.079H910.615a1.968,1.968,0,0,0-1.965,1.965V609.4a1.966,1.966,0,0,0,1.965,1.965h28.038a1.18,1.18,0,0,0,1.171-1.051,1.025,1.025,0,0,0,.008-.128A1.181,1.181,0,0,0,938.654,609.01Zm.655,1.179a.655.655,0,0,1-.655.655H910.615a1.442,1.442,0,0,1-1.441-1.441v-12.84a1.442,1.442,0,0,1,1.441-1.441h23.322a1.389,1.389,0,0,1,.333.039,1.444,1.444,0,0,1,1.108,1.4v12.971h3.275a.656.656,0,0,1,.65.571C939.306,610.134,939.309,610.16,939.309,610.189Zm-3.068-1.179H935.9v-.034c-.173.024-.349.047-.524.073v.485H937.8Q937.037,609.259,936.24,609.01Z" transform="translate(-702.066 -471.155)" fill="#3f3d56"/>
            <circle id="Ellipse_52" data-name="Ellipse 52" cx="1.572" cy="1.572" r="1.572" transform="translate(218.637 130.256)" fill="#f1d26d"/>
            <path id="Path_174" data-name="Path 174" d="M120.279,667.911v.524a3.278,3.278,0,0,0,3.275,3.276h23.584a3.277,3.277,0,0,0,3.275-3.276v-.524a3.252,3.252,0,0,0-.76-2.1,3.367,3.367,0,0,0-.553-.524s-12.966-.294-12.966-.655h-12.58A3.28,3.28,0,0,0,120.279,667.911Z" transform="translate(-120.279 -522.84)" fill="#e6e6e6"/>
            <rect id="Rectangle_28" data-name="Rectangle 28" width="3.407" height="22.011" transform="translate(16.641 170.751) rotate(180)" fill="#e6e6e6"/>
            <path id="Path_175" data-name="Path 175" d="M133.784,765.426c0,.368,5.162.142,11.53.142s11.53.226,11.53-.142-5.162-3.287-11.53-3.287S133.784,765.057,133.784,765.426Z" transform="translate(-130.245 -594.794)" fill="#e6e6e6"/>
            <path id="Path_176" data-name="Path 176" d="M123.1,605.985h3.213l1.528-12.391H123.1Z" transform="translate(-90.842 -438.048)" fill="#a0616a"/>
            <path id="Path_177" data-name="Path 177" d="M0,0H10.1V3.9H3.9A3.9,3.9,0,0,1,0,0H0Z" transform="translate(41.664 170.919) rotate(179.997)" fill="#2f2e41"/>
            <path id="Path_178" data-name="Path 178" d="M131.789,596.745l3.065-.962L132.6,583.5l-4.524,1.42Z" transform="translate(-94.517 -430.602)" fill="#a0616a"/>
            <path id="Path_179" data-name="Path 179" d="M0,0H10.1V3.9H3.9A3.9,3.9,0,0,1,0,0H0Z" transform="translate(47.141 166.173) rotate(162.577)" fill="#2f2e41"/>
            <path id="Path_180" data-name="Path 180" d="M193.775,663.4c-.595-2.675-2.623-11.784-3.734-16.668a3.847,3.847,0,0,0-1.3-2,7.115,7.115,0,0,0-.676-.524H170.687a.655.655,0,0,1-.655-.655c0-.029,0-.055.005-.084a.656.656,0,0,1,.65-.571h3.275v-2.6c-.178-.021-.351-.042-.524-.06-1.37-.162-2.55-.267-3.393-.333-.749-.058-1.234-.084-1.349-.089l-.068-.005-1.562,1.963-.6.755a9.855,9.855,0,0,0-.4,1.837,4.76,4.76,0,0,0,1.135,3.983c3.7,3.941,14.761,1.5,16.079,1.187l5.878,15.426a1.181,1.181,0,0,0,1.1.757c.037,0,.073,0,.11-.005a1.2,1.2,0,0,0,.3-.068l2.364-.886A1.188,1.188,0,0,0,193.775,663.4Z" transform="translate(-154.035 -504.521)" fill="#2f2e41"/>
            <path id="Path_181" data-name="Path 181" d="M180.773,670.4c-.595-2.675-2.623-11.784-3.734-16.668-.37-1.619-2.13-2.869-4.5-3.831-.453-.186-.93-.359-1.426-.524H161.092a.655.655,0,0,1-.655-.655c0-.029,0-.055.005-.084a.656.656,0,0,1,.65-.571h3.275v-.278c-.364-.063-.728-.121-1.085-.176l-.487-.071q-.436-.063-.857-.118c-1.769-.238-3.341-.39-4.468-.485-.993-.081-1.64-.115-1.777-.123l-.068-.005-2.162,2.717c-.076.244-.141.485-.2.718-.524,2.17-.21,3.881.935,5.1,3.7,3.941,14.761,1.5,16.079,1.187l5.878,15.426a1.184,1.184,0,0,0,1.515.684l2.364-.886a1.181,1.181,0,0,0,.742-.88A1.1,1.1,0,0,0,180.773,670.4Z" transform="translate(-144.44 -509.687)" fill="#2f2e41"/>
            <path id="Path_182" data-name="Path 182" d="M242.29,620.6a1.572,1.572,0,0,0-1.433.928l2.385-.608A1.552,1.552,0,0,0,242.29,620.6Z" transform="translate(-209.26 -490.345)" fill="#a0616a"/>
            <path id="Path_183" data-name="Path 183" d="M163.41,570.341a6.4,6.4,0,0,0-1.944-4.6,6.532,6.532,0,0,0-2.927-1.64,21.332,21.332,0,0,0-2.6-.514,6.425,6.425,0,0,0-5.495,1.939c-.047.047-.092.1-.134.147a6.446,6.446,0,0,0-1.593,5.453c.128.765.259,1.575.383,2.419.128.883.252,1.8.362,2.736.2,1.727.362,3.514.435,5.254a33.359,33.359,0,0,1-.236,6.213,1.18,1.18,0,0,0,.359,1.043,1.43,1.43,0,0,0,.118.1,1.144,1.144,0,0,0,1.218.092c.529-.27,1.161-.579,1.871-.9,1.072-.49,2.322-1.019,3.669-1.507.464-.168.941-.33,1.423-.482l.375-.118c.626-.191,1.263-.369,1.905-.521.176-.042.349-.081.524-.118v-11.69a1.444,1.444,0,0,1,1.108-1.4,1.393,1.393,0,0,1,.333-.039h.844c-.005-.176-.008-.351-.008-.524-.005-.393,0-.781.008-1.161C163.41,570.454,163.41,570.4,163.41,570.341Z" transform="translate(-141.195 -448.229)" fill="#ccc"/>
            <path id="Path_184" data-name="Path 184" d="M196.727,577.6l-1.826-4.219a3.017,3.017,0,0,0-3.548-1.714,3.112,3.112,0,0,0-.414.144,3.019,3.019,0,0,0-1.57,3.965l1.292,2.982.349.807a1.444,1.444,0,0,1,1.108-1.4,1.393,1.393,0,0,1,.333-.039h4.5Z" transform="translate(-171.082 -454.161)" fill="#ccc"/>
            <circle id="Ellipse_53" data-name="Ellipse 53" cx="6.436" cy="6.436" r="6.436" transform="translate(7.83 100.441)" fill="#a0616a"/>
            <path id="Path_185" data-name="Path 185" d="M144.427,511.6a1.042,1.042,0,0,1-1.491.086,11.641,11.641,0,0,1-3.321-4.336,7.724,7.724,0,0,1-.007-6.3,8.691,8.691,0,0,1,3.693-3.408,6.023,6.023,0,0,1,1.794-.758,2.357,2.357,0,0,1,1.875.369,1.977,1.977,0,0,1,.754,1.894,5.858,5.858,0,0,1,2.569-1.928,2.978,2.978,0,0,1,1.979-.133,3.623,3.623,0,0,1,1.994,2.25,5.016,5.016,0,0,1,.329,2.427,2.916,2.916,0,0,1-1.119,2.01,3.149,3.149,0,0,1-2.608.238,20.435,20.435,0,0,0-2.626-.731,2.472,2.472,0,0,0-2.418.925,4.479,4.479,0,0,0-.54,2.007l-.4,3.668a4.861,4.861,0,0,1-.335,1.53A.854.854,0,0,1,144.427,511.6Z" transform="translate(-134.05 -399)" fill="#2f2e41"/>
            <path id="Path_186" data-name="Path 186" d="M158.055,608.281l-7.5-3.365-.06-.6-.267-2.581-3.674-.1-1.381-.037.016,2.246.018,3.047a2.847,2.847,0,0,0,2.06,2.709l.084.024,7.308,2.081,3.393.967.524.149v-4.308Z" transform="translate(-138.652 -476.324)" fill="#a0616a"/>
            <path id="Path_187" data-name="Path 187" d="M147.946,571.476a3.011,3.011,0,0,0-3.192,2.822l-.4,6.538a1.186,1.186,0,0,0,.231.776.805.805,0,0,0,.063.079,1.166,1.166,0,0,0,.351.27,1.15,1.15,0,0,0,.461.126l.852.052,2.809.173a1.183,1.183,0,0,0,1.25-1.106l.4-6.538A3.015,3.015,0,0,0,147.946,571.476Z" transform="translate(-138.041 -454.088)" fill="#ccc"/>
            <path id="Path_188" data-name="Path 188" d="M1005.213,509.984c-.549.3-1.232.586-1.755.23a1.565,1.565,0,0,1-.37-1.724,7.964,7.964,0,0,0,.537-1.794,2.6,2.6,0,0,0-1.308-2.211,7.069,7.069,0,0,0-2.483-.8l-4.7-.9a5.205,5.205,0,0,1-3.2-1.435,3.527,3.527,0,0,1,.694-4.709,5.72,5.72,0,0,1,4.877-.851,25.584,25.584,0,0,0,2.769.641c1.855.2,3.818-.539,5.539.224a5.024,5.024,0,0,1,2.619,4.03,13.548,13.548,0,0,1-.571,4.992,9.012,9.012,0,0,1-1.059,2.775,3.039,3.039,0,0,1-2.373,1.488Z" transform="translate(-763.07 -398.101)" fill="#2f2e41"/>
            <circle id="Ellipse_54" data-name="Ellipse 54" cx="5.241" cy="5.241" r="5.241" transform="translate(240.929 94.05)" fill="#2f2e41"/>
            <path id="Path_189" data-name="Path 189" d="M183.257,608.98v.034h-.338l-.223.071q-.68.216-1.336.453h2.421v-.485C183.605,609.027,183.43,609,183.257,608.98Zm0,0v.034h-.338l-.223.071q-.68.216-1.336.453h2.421v-.485C183.605,609.027,183.43,609,183.257,608.98Zm0,0v.034h-.338l-.223.071c.356.055.721.113,1.085.176v-.207C183.605,609.027,183.43,609,183.257,608.98Zm0-.605v.639h-.338l-.223.071q-.68.216-1.336.453h2.421v-1.281C183.605,608.294,183.432,608.333,183.257,608.375Zm0,0v.639h-.338l-.223.071q-.68.216-1.336.453h2.421v-1.281C183.605,608.294,183.432,608.333,183.257,608.375Zm0,0v.639h-.338l-.223.071q-.68.216-1.336.453h2.421v-1.281C183.605,608.294,183.432,608.333,183.257,608.375ZM208.543,594.6H185.222a1.849,1.849,0,0,0-.542.079,1.978,1.978,0,0,0-1.247,1.08,1.935,1.935,0,0,0-.176.807v12.447h-2.751a1.179,1.179,0,0,0-1.179,1.179,1.02,1.02,0,0,0,.008.128,1.18,1.18,0,0,0,1.171,1.051h28.038a1.966,1.966,0,0,0,1.965-1.965v-12.84A1.968,1.968,0,0,0,208.543,594.6Zm1.441,14.805a1.442,1.442,0,0,1-1.441,1.441H180.505a.655.655,0,0,1-.655-.655c0-.029,0-.055.005-.084a.656.656,0,0,1,.65-.571h3.275V596.567a1.444,1.444,0,0,1,1.108-1.4,1.392,1.392,0,0,1,.333-.039h23.321a1.442,1.442,0,0,1,1.441,1.441Zm-26.728-1.032v.639h-.338l-.223.071q-.68.216-1.336.453h2.421v-1.281C183.605,608.294,183.432,608.333,183.257,608.375Zm0,0v.639h-.338l-.223.071q-.68.216-1.336.453h2.421v-1.281C183.605,608.294,183.432,608.333,183.257,608.375Zm0,0v.639h-.338l-.223.071q-.68.216-1.336.453h2.421v-1.281C183.605,608.294,183.432,608.333,183.257,608.375Zm0,.605v.034h-.338l-.223.071q-.68.216-1.336.453h2.421v-.485C183.605,609.027,183.43,609,183.257,608.98Z" transform="translate(-163.853 -471.158)" fill="#3f3d56"/>
            <path id="Path_190" data-name="Path 190" d="M243.47,622.174a1.572,1.572,0,1,1-3.144,0,1.556,1.556,0,0,1,.139-.645,1.572,1.572,0,0,1,1.433-.928,1.552,1.552,0,0,1,.951.32A1.573,1.573,0,0,1,243.47,622.174Z" transform="translate(-208.869 -490.345)" fill="#f1d26d"/>
          </g>
          <g id="Group_84" data-name="Group 84">
            <rect id="Rectangle_55" data-name="Rectangle 55" width="162" height="87" rx="2" transform="translate(45.918 12.298)" fill="#282c34"/>
            <g id="Group_83" data-name="Group 83">
              <line id="Line_75" data-name="Line 75" x2="34" transform="translate(53.418 20.798)" fill="none" stroke="#f1d26d" stroke-width="1"/>
              <line id="Line_92" data-name="Line 92" x2="34" transform="translate(53.418 52.798)" fill="none" stroke="#f1d26d" stroke-width="1"/>
              <line id="Line_76" data-name="Line 76" x2="15" transform="translate(97.418 20.798)" fill="none" stroke="#f1d26d" stroke-width="1"/>
              <line id="Line_93" data-name="Line 93" x2="15" transform="translate(92.418 52.798)" fill="none" stroke="#f1d26d" stroke-width="1"/>
              <line id="Line_77" data-name="Line 77" x2="30" transform="translate(122.418 20.798)" fill="none" stroke="#f1d26d" stroke-width="1"/>
              <line id="Line_85" data-name="Line 85" x2="30" transform="translate(162.418 20.798)" fill="none" stroke="#f1d26d" stroke-width="1"/>
              <line id="Line_95" data-name="Line 95" x2="18" transform="translate(112.418 52.798)" fill="none" stroke="#f1d26d" stroke-width="1"/>
              <line id="Line_96" data-name="Line 96" x2="10" transform="translate(135.418 52.798)" fill="none" stroke="#f1d26d" stroke-width="1"/>
              <line id="Line_97" data-name="Line 97" x2="10" transform="translate(149.418 52.798)" fill="none" stroke="#f1d26d" stroke-width="1"/>
              <line id="Line_79" data-name="Line 79" x2="18" transform="translate(53.418 28.798)" fill="none" stroke="#f1d26d" stroke-width="1"/>
              <line id="Line_80" data-name="Line 80" x2="14" transform="translate(81.418 28.798)" fill="none" stroke="#f1d26d" stroke-width="1"/>
              <line id="Line_90" data-name="Line 90" x2="14" transform="translate(53.418 60.798)" fill="none" stroke="#f1d26d" stroke-width="1"/>
              <line id="Line_82" data-name="Line 82" x2="34" transform="translate(53.418 36.798)" fill="none" stroke="#f1d26d" stroke-width="1"/>
              <line id="Line_91" data-name="Line 91" x2="34" transform="translate(53.418 68.798)" fill="none" stroke="#f1d26d" stroke-width="1"/>
              <line id="Line_86" data-name="Line 86" x2="34" transform="translate(122.418 36.798)" fill="none" stroke="#f1d26d" stroke-width="1"/>
              <line id="Line_87" data-name="Line 87" x2="34" transform="translate(122.418 68.798)" fill="none" stroke="#f1d26d" stroke-width="1"/>
              <line id="Line_83" data-name="Line 83" x2="16" transform="translate(97.418 36.798)" fill="none" stroke="#f1d26d" stroke-width="1"/>
              <line id="Line_89" data-name="Line 89" x2="16" transform="translate(97.418 68.798)" fill="none" stroke="#f1d26d" stroke-width="1"/>
              <path id="Path_282" data-name="Path 282" d="M0,0H20" transform="translate(53.418 44.798)" fill="none" stroke="#f1d26d" stroke-width="1"/>
              <path id="Path_284" data-name="Path 284" d="M0,0H101" transform="translate(77.418 44.798)" fill="none" stroke="#f1d26d" stroke-width="1"/>
              <path id="Path_283" data-name="Path 283" d="M0,0H20" transform="translate(53.418 76.798)" fill="none" stroke="#f1d26d" stroke-width="1"/>
              <line id="Line_81" data-name="Line 81" x2="30" transform="translate(105.418 28.798)" fill="none" stroke="#f1d26d" stroke-width="1"/>
              <line id="Line_88" data-name="Line 88" x2="30" transform="translate(77.418 60.798)" fill="none" stroke="#f1d26d" stroke-width="1"/>
            </g>
          </g>
        </g>
      </g>
    </g>
  </g>
</svg>
