<svg xmlns="http://www.w3.org/2000/svg" width="126" height="315.041" viewBox="0 0 126 315.041">
  <g id="Group_94" data-name="Group 94" transform="translate(-1502.166 -2352.971)">
    <g id="Ellipse_105" data-name="Ellipse 105" transform="translate(1502.166 2636.012)" fill="#f1d26d" stroke="#707070" stroke-width="1">
      <ellipse cx="63" cy="16" rx="63" ry="16" stroke="none"/>
      <ellipse cx="63" cy="16" rx="62.5" ry="15.5" fill="none"/>
    </g>
    <path id="Path_298" data-name="Path 298" d="M832.439,527.718a7.612,7.612,0,0,0-2.516-11.4l1.5-17.329L821.12,495.51l-1.781,24.5a7.653,7.653,0,0,0,13.1,7.707Z" transform="translate(707.43 1989.431)" fill="#ffb8b8"/>
    <path id="Path_299" data-name="Path 299" d="M669.629,505.86h-9.28l-4.413-35.794h13.7Z" transform="translate(921.678 2146.016)" fill="#ffb8b8"/>
    <path id="Path_300" data-name="Path 300" d="M650.594,510.894h17.9v11.269H639.325a11.269,11.269,0,0,1,11.268-11.268Z" transform="translate(924.806 2138.329)" fill="#2f2e41"/>
    <path id="Path_301" data-name="Path 301" d="M641.789,476.84l-9.012,2.214-12.83-33.706,13.3-3.269Z" transform="translate(928.453 2151.284)" fill="#ffb8b8"/>
    <path id="Path_302" data-name="Path 302" d="M11.268,0h17.9V11.269H0A11.269,11.269,0,0,1,11.269,0Z" transform="matrix(0.971, -0.239, 0.239, 0.971, 1543.215, 2632.036)" fill="#2f2e41"/>
    <path id="Path_303" data-name="Path 303" d="M875.015,656.874a3.417,3.417,0,0,1-3.406-3.068l-10.679-99.481-9.292,30.42L864.8,632.258a3.43,3.43,0,0,1-2.034,4.1L852.3,640.548a3.434,3.434,0,0,1-4.518-2.058l-16.13-46.277a41.9,41.9,0,0,1-2.3-15.744l2.251-49.941,59.292,2.51L889.969,652.6a3.453,3.453,0,0,1-3.176,3.4l-11.514.868Q875.147,656.874,875.015,656.874Z" transform="translate(705.432 1983.591)" fill="#2f2e41"/>
    <circle id="Ellipse_106" data-name="Ellipse 106" cx="19.937" cy="19.937" r="19.937" transform="translate(1550.689 2359.724)" fill="#ffb8b8"/>
    <path id="Path_304" data-name="Path 304" d="M879.538,508.067c-5.25,0-11.774-.43-18.521-.874-9.221-.607-18.756-1.234-25.874-.822a5.655,5.655,0,0,1-5.058-2.2c-7.338-9.395,3.98-46.032,4.465-47.586l9.21-40.967.4.089-.4-.089c2.026-9.01,8.5-15.656,16.895-17.345,7.858-1.578,15.458,1.568,20.332,8.422q.388.545.776,1.119c15.871,23.505,6.894,81.9,6.293,85.67.838,1,5.372,6.682,4.126,10.626-.507,1.6-1.884,2.7-4.093,3.25a38.155,38.155,0,0,1-8.549.71Z" transform="translate(705.75 2007.813)" fill="#f1d26d"/>
    <path id="Path_305" data-name="Path 305" d="M834.841,508.4c-1.806,0-4.242-.666-7.527-2.033-1.412-.587-5.707-2.375-.492-47.951,2.562-22.388,6.231-44.619,6.268-44.841l.035-.214.2-.09c.095-.043,9.466-4.339,11.1-9.859q.085-.287.19-.556a5.069,5.069,0,0,1,6.294-3.091,5.325,5.325,0,0,1,4.012,6.078,37.364,37.364,0,0,1-3.239,10.383c-4.41,9.1-7.4,33.223-7.427,33.465-.168,2.06-4.171,50.873-4.942,54.577a4.959,4.959,0,0,1-2.219,3.645A4.742,4.742,0,0,1,834.841,508.4Z" transform="translate(706.373 2007.502)" fill="#2f2e41"/>
    <path id="Path_306" data-name="Path 306" d="M863.454,506.782a1.638,1.638,0,0,1-1.005-.345c-5.866-4.457,3.627-58.487,9.257-77.128,1.127-3.732,2.131-6.93,2.984-9.5h0a72.458,72.458,0,0,0,3.238-14.21c.31-2.618.983-4.114,2.059-4.572a2.615,2.615,0,0,1,2.614.644c5.2-.257,10.254,1.868,14.937,4.206l4.214,2.1,4.73,83.73c-.134,5.344-10.667,9.116-15.264,9.357-7.378.387-20.626,1.588-26.463,5.283A2.44,2.44,0,0,1,863.454,506.782Z" transform="translate(699.54 2007.246)" fill="#2f2e41"/>
    <path id="Path_307" data-name="Path 307" d="M828.647,493.637c-.07,0-.14,0-.21-.006l-9.552-.588A3.433,3.433,0,0,1,815.7,489.1l4.323-28.637,8.137-40.179a7.208,7.208,0,0,1,9.223-5.446h0a7.247,7.247,0,0,1,4.958,8.019l-6.465,40.259-3.827,27.556A3.45,3.45,0,0,1,828.647,493.637Z" transform="translate(708.001 2004.68)" fill="#2f2e41"/>
    <path id="Path_308" data-name="Path 308" d="M871.591,471.225a7.612,7.612,0,0,1,11.547-1.7l15.662-7.565,6.919,8.4-22.268,10.373a7.653,7.653,0,0,1-11.86-9.505Z" transform="translate(697.689 1995.747)" fill="#ffb8b8"/>
    <path id="Path_309" data-name="Path 309" d="M897.339,469.292a3.435,3.435,0,0,1-3.34-2.631l-2.275-9.457a3.418,3.418,0,0,1,1.575-3.75l13.72-8.211-7.013-25.678a8.729,8.729,0,0,1,16.716-5.017l7.743,23.642a14.267,14.267,0,0,1-5.212,16.05l-19.9,14.4a3.429,3.429,0,0,1-2.011.652Z" transform="translate(693.699 2005.805)" fill="#2f2e41"/>
    <path id="Path_310" data-name="Path 310" d="M870.732,379.07A21.272,21.272,0,1,0,866.746,337c-4.384-2.662-9.482-4.453-14.591-4s-10.162,3.489-12.072,8.249.142,11.035,4.892,12.969c3.045,1.24,6.485.639,9.735.139s6.8-.826,9.624.85,4.1,6.174,1.567,8.27a8.717,8.717,0,0,0-2.5,9.595C864.671,376.369,868.146,379.014,870.732,379.07Z" transform="translate(703.536 2020.038)" fill="#2f2e41"/>
  </g>
</svg>
